<?xml version="1.0" encoding="utf-8"?>
<!-- Generator: Adobe Illustrator 24.2.1, SVG Export Plug-In . SVG Version: 6.00 Build 0)  -->
<svg version="1.1" id="Capa_1" xmlns="http://www.w3.org/2000/svg" xmlns:xlink="http://www.w3.org/1999/xlink" x="0px" y="0px"
	 viewBox="0 0 155 158" style="enable-background:new 0 0 155 158;" xml:space="preserve">
<style type="text/css">
	.st0{fill:#0D2A3B;}
	.st1{fill:#F5B45F;}
</style>
<g>
	<rect x="8.5" y="11.8" class="st0" width="135.1" height="135.1"/>
	<path class="st1" d="M96.4,94.7l11.6,3.8c-1.6,2.4-3.4,4.5-5.6,6.4c-2.1,1.9-4.4,3.6-6.9,5c-2.4,1.4-5.1,2.4-7.9,3.1
		c-2.8,0.8-5.7,1.1-8.7,1.1c-9.7,0-17.8-3.5-24.6-10.3C47.5,97.1,44,89,44,79.4c0-9.6,3.4-17.8,10.3-24.6
		c6.7-6.9,14.9-10.3,24.6-10.3c4.8,0,9.3,0.9,13.6,2.7c4.2,1.8,7.9,4.4,11.2,7.6L95.3,63c-4.5-4.5-9.9-6.8-16.4-6.8
		c-6.4,0-11.9,2.2-16.5,6.8c-4.5,4.5-6.7,10-6.7,16.4c0,6.4,2.2,11.9,6.7,16.5c4.5,4.5,10.1,6.7,16.5,6.7c3.5,0,6.7-0.7,9.7-2
		C91.5,99.1,94.2,97.2,96.4,94.7 M76,77.4h29.1L93.5,89H76V77.4z"/>
</g>
</svg>
