<?xml version="1.0" encoding="utf-8"?>
<!-- Generator: Adobe Illustrator 24.2.1, SVG Export Plug-In . SVG Version: 6.00 Build 0)  -->
<svg version="1.1" id="Capa_1" xmlns="http://www.w3.org/2000/svg" xmlns:xlink="http://www.w3.org/1999/xlink" x="0px" y="0px"
	 viewBox="0 0 358 109" style="enable-background:new 0 0 358 109;" xml:space="preserve">
<style type="text/css">
	.st0{fill:#F5B45F;}
</style>
<g>
	<g>
		<g>
			
				<rect x="145.2" y="53.3" transform="matrix(0.7071 -0.7071 0.7071 0.7071 3.7306 120.9568)" class="st0" width="5.4" height="5.4"/>
			<g>
				<path class="st0" d="M163.5,41.9l-15.9-31.7l-30.1,60.1h11.1l5.1-10.1l5-9.9l8.9-17.7l9.4,18.8L163.5,41.9
					C163.5,41.9,163.5,41.9,163.5,41.9z"/>
				<path class="st0" d="M169.4,53.6l-6.4,9.5l3.5,7.1h11.2l-2.7-5.4C173.5,61.8,170.9,56.6,169.4,53.6z"/>
				<polygon class="st0" points="177.9,20.5 172.6,10.1 161.5,10.1 171.5,30 				"/>
				<path class="st0" d="M207.9,15.1L207.9,15.1c-2.5,5-5,10-7.5,15h0l-8.8,17.7l-7.8-15.6l-6.4,9.6l14.2,28.4l15.9-31.7
					c0,0,0,0,0,0l4.2-8.4h0c2.4-4.9,4.8-9.7,7.3-14.6l2.7-5.4h-11.2L207.9,15.1z"/>
				<polygon class="st0" points="228.5,43.6 228.5,70.5 228.5,70.7 238.4,70.7 238.4,60.4 238.4,43.6 238.4,20.3 228.5,10.4 				"/>
				<polygon class="st0" points="276,20.2 285.9,10.1 240.3,10.1 250.4,20.2 258.1,20.2 258.1,20.2 258.1,20.2 258.1,70.2 
					268.2,70.2 268.2,22.4 268.2,22.4 268.2,20.2 				"/>
				<polygon class="st0" points="331.4,10.1 320.6,26.5 303.2,10.1 291,10.2 314.9,35 291.2,70.7 303.2,70.7 343.1,10.1 				"/>
				<polygon class="st0" points="36.8,48.6 51.9,48.6 61.9,38.6 36.8,38.6 				"/>
				<path class="st0" d="M47.6,58.5c-2.6,1.1-5.3,1.7-8.3,1.7c-5.5,0-10.3-1.9-14.2-5.8s-5.8-8.7-5.8-14.2c0-5.5,1.9-10.2,5.8-14.1
					c4-4,8.7-5.9,14.2-5.9c5.6,0,10.2,2,14.1,5.9l7.2-7.1c-2.8-2.8-6-5-9.6-6.5c-3.7-1.6-7.6-2.3-11.7-2.3c-8.3,0-15.4,2.9-21.2,8.9
					C12.1,25,9.2,32,9.2,40.3c0,8.3,3,15.3,8.9,21.2c5.9,5.9,12.8,8.9,21.2,8.9c2.6,0,5.1-0.3,7.5-1c2.5-0.6,4.7-1.5,6.8-2.7
					c2.2-1.2,4.1-2.6,5.9-4.3c1.9-1.7,3.5-3.5,4.8-5.6l-10-3.3C52.4,55.7,50.1,57.3,47.6,58.5z"/>
				<path class="st0" d="M107.2,41.6c2.4-3.4,3.5-7.1,3.5-11.3c0-5.5-2-10.1-5.9-14.1c-3.9-3.9-8.6-5.9-14.1-5.9H64.3l5.2,8.9
					l1.1,1.1h20.1c2.7,0,5,1,7,2.9c2,2,3,4.3,3,7c0,2.8-1,5.2-3,7.1c-2,2-4.3,2.9-7,2.9l-8.9-0.1l17.4,30.1h11.5L98.4,48.8
					C101.9,47.3,104.8,44.9,107.2,41.6z"/>
			</g>
		</g>
		<g>
			<path class="st0" d="M75.3,96.9l-1-2.7h-4l-1,2.7h-1l3.5-9.2h0.9l3.5,9.2H75.3z M72.5,89.2c0-0.1-0.1-0.2-0.1-0.3
				c0-0.1-0.1-0.2-0.1-0.4h0c0,0.1-0.1,0.3-0.1,0.4c0,0.1-0.1,0.2-0.1,0.3l-1.5,4.1H74L72.5,89.2z"/>
			<path class="st0" d="M83.7,96.4c0,1.2-0.3,2.1-0.8,2.7c-0.6,0.6-1.4,0.9-2.6,0.9c-0.7,0-1.4-0.2-2-0.5v-0.8
				c0.7,0.4,1.4,0.6,2,0.6c1.7,0,2.6-0.9,2.6-2.7v-0.8h0c-0.5,0.9-1.3,1.3-2.3,1.3c-0.4,0-0.8-0.1-1.1-0.2c-0.3-0.2-0.6-0.4-0.9-0.7
				c-0.2-0.3-0.4-0.6-0.6-1c-0.1-0.4-0.2-0.9-0.2-1.4c0-0.5,0.1-1,0.2-1.5c0.1-0.4,0.3-0.8,0.6-1.1c0.3-0.3,0.6-0.6,0.9-0.7
				c0.4-0.2,0.8-0.3,1.3-0.3c0.9,0,1.6,0.4,2,1.1h0v-1h0.8V96.4z M82.9,92.9c0-0.3,0-0.5-0.1-0.8c-0.1-0.2-0.2-0.5-0.4-0.6
				c-0.2-0.2-0.4-0.3-0.6-0.4c-0.2-0.1-0.5-0.2-0.8-0.2c-0.3,0-0.7,0.1-0.9,0.2c-0.3,0.1-0.5,0.3-0.7,0.6c-0.2,0.2-0.3,0.5-0.5,0.9
				c-0.1,0.4-0.2,0.7-0.2,1.2c0,0.4,0,0.8,0.1,1.1c0.1,0.3,0.2,0.6,0.4,0.8c0.2,0.2,0.4,0.4,0.7,0.5c0.3,0.1,0.5,0.2,0.9,0.2
				c0.3,0,0.6-0.1,0.9-0.2c0.3-0.1,0.5-0.3,0.7-0.5c0.2-0.2,0.3-0.5,0.4-0.7s0.2-0.6,0.2-0.9V92.9z"/>
			<path class="st0" d="M86.9,93.7c0,0.4,0.1,0.8,0.2,1.1s0.3,0.6,0.4,0.8s0.4,0.4,0.7,0.5c0.3,0.1,0.6,0.2,0.9,0.2
				c0.7,0,1.4-0.3,2.1-0.8v0.8C90.6,96.8,89.9,97,89,97c-0.4,0-0.8-0.1-1.2-0.2c-0.4-0.2-0.7-0.4-0.9-0.7c-0.3-0.3-0.4-0.7-0.6-1.1
				c-0.1-0.4-0.2-0.9-0.2-1.5c0-0.5,0.1-1,0.2-1.4c0.2-0.4,0.4-0.8,0.6-1.1c0.3-0.3,0.6-0.5,0.9-0.7c0.4-0.2,0.8-0.3,1.2-0.3
				c0.4,0,0.8,0.1,1.1,0.2c0.3,0.1,0.6,0.4,0.8,0.6c0.2,0.3,0.4,0.6,0.5,1s0.2,0.8,0.2,1.3v0.4H86.9z M90.8,93
				c0-0.7-0.2-1.2-0.5-1.6C90,91,89.6,90.8,89,90.8c-0.3,0-0.5,0-0.8,0.1c-0.2,0.1-0.4,0.2-0.6,0.4c-0.2,0.2-0.3,0.4-0.4,0.7
				c-0.1,0.3-0.2,0.6-0.2,0.9H90.8z"/>
			<path class="st0" d="M98.4,96.9v-3.8c0-1.5-0.5-2.2-1.6-2.2c-0.3,0-0.6,0.1-0.8,0.2c-0.2,0.1-0.5,0.3-0.6,0.5
				c-0.2,0.2-0.3,0.4-0.4,0.7c-0.1,0.3-0.2,0.6-0.2,0.9v3.8H94v-6.6h0.8v1.1h0c0.5-0.9,1.2-1.3,2.2-1.3c0.7,0,1.3,0.2,1.6,0.7
				c0.4,0.5,0.6,1.1,0.6,2v4H98.4z"/>
			<path class="st0" d="M106.3,96.6c-0.5,0.3-1.1,0.4-1.8,0.5c-0.5,0-0.9-0.1-1.3-0.2c-0.4-0.2-0.7-0.4-1-0.7
				c-0.3-0.3-0.5-0.7-0.6-1.1c-0.1-0.4-0.2-0.8-0.2-1.3c0-0.5,0.1-1,0.2-1.4c0.2-0.4,0.4-0.8,0.7-1.1c0.3-0.3,0.6-0.6,1.1-0.8
				c0.4-0.2,0.9-0.3,1.4-0.3c0.5,0,1,0.1,1.5,0.3v0.9c-0.5-0.3-1-0.5-1.6-0.5c-0.4,0-0.7,0.1-1,0.2c-0.3,0.1-0.6,0.3-0.8,0.6
				c-0.2,0.3-0.4,0.6-0.5,0.9c-0.1,0.3-0.2,0.7-0.2,1.1c0,0.4,0,0.7,0.1,1c0.1,0.3,0.2,0.6,0.4,0.9c0.2,0.2,0.4,0.4,0.7,0.6
				c0.3,0.1,0.6,0.2,1,0.2c0.6,0,1.2-0.2,1.7-0.6V96.6z"/>
			<path class="st0" d="M109,88.6c-0.2,0-0.3-0.1-0.4-0.2c-0.1-0.1-0.2-0.3-0.2-0.4c0-0.2,0.1-0.3,0.2-0.4c0.1-0.1,0.3-0.2,0.4-0.2
				c0.1,0,0.2,0,0.2,0c0.1,0,0.1,0.1,0.2,0.1c0.1,0.1,0.1,0.1,0.1,0.2c0,0.1,0,0.1,0,0.2c0,0.1,0,0.2,0,0.2c0,0.1-0.1,0.1-0.1,0.2
				c-0.1,0.1-0.1,0.1-0.2,0.1C109.1,88.6,109,88.6,109,88.6z M108.6,96.9v-6.6h0.8v6.6H108.6z"/>
			<path class="st0" d="M116,96.9v-1.2h0c-0.2,0.4-0.5,0.7-0.9,1c-0.4,0.2-0.8,0.3-1.3,0.3c-0.3,0-0.6,0-0.9-0.1
				c-0.3-0.1-0.5-0.2-0.7-0.4c-0.2-0.2-0.3-0.4-0.4-0.6c-0.1-0.2-0.1-0.5-0.1-0.8c0-0.6,0.2-1.1,0.6-1.4c0.4-0.4,0.9-0.6,1.7-0.7
				l2-0.3c0-1.3-0.5-1.9-1.5-1.9c-0.8,0-1.5,0.3-2.1,0.8v-0.9c0.1-0.1,0.3-0.2,0.5-0.3c0.2-0.1,0.4-0.1,0.6-0.2s0.4-0.1,0.6-0.1
				c0.2,0,0.4,0,0.6,0c0.7,0,1.3,0.2,1.7,0.6c0.4,0.4,0.6,1,0.6,1.8v4.3H116z M114.3,93.7c-0.3,0-0.5,0.1-0.8,0.2
				c-0.2,0.1-0.4,0.2-0.5,0.3c-0.1,0.1-0.2,0.2-0.3,0.4c-0.1,0.2-0.1,0.4-0.1,0.6c0,0.2,0,0.3,0.1,0.5c0.1,0.2,0.2,0.3,0.3,0.4
				c0.1,0.1,0.3,0.2,0.4,0.3c0.2,0.1,0.4,0.1,0.6,0.1c0.3,0,0.6-0.1,0.8-0.2c0.2-0.1,0.5-0.3,0.6-0.5c0.2-0.2,0.3-0.4,0.4-0.7
				c0.1-0.3,0.2-0.6,0.2-0.9v-0.7L114.3,93.7z"/>
			<path class="st0" d="M128.4,96.9v-1.2h0c-0.2,0.4-0.5,0.7-0.9,1c-0.4,0.2-0.9,0.3-1.4,0.3c-0.4,0-0.8-0.1-1.1-0.2
				c-0.3-0.2-0.6-0.4-0.9-0.7c-0.2-0.3-0.4-0.6-0.6-1c-0.1-0.4-0.2-0.9-0.2-1.4c0-0.5,0.1-1,0.2-1.5c0.1-0.4,0.3-0.8,0.6-1.1
				c0.3-0.3,0.6-0.6,1-0.7c0.4-0.2,0.8-0.3,1.2-0.3c0.9,0,1.6,0.4,2,1.1h0v-4.2h0.8v9.8H128.4z M128.4,92.9c0-0.3,0-0.6-0.1-0.8
				c-0.1-0.2-0.2-0.5-0.4-0.6c-0.2-0.2-0.4-0.3-0.6-0.4c-0.2-0.1-0.5-0.2-0.8-0.2c-0.3,0-0.6,0.1-0.9,0.2c-0.3,0.1-0.5,0.3-0.7,0.6
				s-0.3,0.5-0.5,0.9c-0.1,0.3-0.2,0.7-0.2,1.2c0,0.4,0,0.8,0.1,1.1c0.1,0.3,0.2,0.6,0.4,0.8c0.2,0.2,0.4,0.4,0.7,0.5
				c0.3,0.1,0.5,0.2,0.8,0.2c0.3,0,0.6-0.1,0.9-0.2c0.3-0.1,0.5-0.3,0.7-0.5c0.2-0.2,0.3-0.5,0.4-0.7c0.1-0.3,0.2-0.6,0.2-0.9V92.9z
				"/>
			<path class="st0" d="M132.4,93.7c0,0.4,0.1,0.8,0.2,1.1c0.1,0.3,0.3,0.6,0.4,0.8c0.2,0.2,0.4,0.4,0.7,0.5
				c0.3,0.1,0.6,0.2,0.9,0.2c0.7,0,1.4-0.3,2.1-0.8v0.8c-0.6,0.5-1.4,0.7-2.3,0.7c-0.4,0-0.8-0.1-1.2-0.2c-0.4-0.2-0.7-0.4-0.9-0.7
				c-0.3-0.3-0.4-0.7-0.6-1.1c-0.1-0.4-0.2-0.9-0.2-1.5c0-0.5,0.1-1,0.2-1.4c0.2-0.4,0.4-0.8,0.6-1.1c0.3-0.3,0.6-0.5,0.9-0.7
				c0.4-0.2,0.8-0.3,1.2-0.3c0.4,0,0.8,0.1,1.1,0.2c0.3,0.1,0.6,0.4,0.8,0.6c0.2,0.3,0.4,0.6,0.5,1s0.2,0.8,0.2,1.3v0.4H132.4z
				 M136.3,93c0-0.7-0.2-1.2-0.5-1.6c-0.3-0.4-0.7-0.6-1.3-0.6c-0.3,0-0.5,0-0.8,0.1c-0.2,0.1-0.4,0.2-0.6,0.4
				c-0.2,0.2-0.3,0.4-0.4,0.7c-0.1,0.3-0.2,0.6-0.2,0.9H136.3z"/>
			<path class="st0" d="M144.7,93.3v3.6h-0.9v-9.2h2.4c0.5,0,0.9,0.1,1.3,0.2c0.4,0.1,0.7,0.3,0.9,0.5c0.3,0.2,0.5,0.5,0.6,0.8
				c0.1,0.3,0.2,0.7,0.2,1.1c0,0.4-0.1,0.8-0.2,1.2c-0.2,0.4-0.4,0.7-0.6,0.9c-0.3,0.3-0.6,0.5-1,0.6c-0.4,0.1-0.9,0.2-1.4,0.2
				H144.7z M144.7,88.4v4.1h1.2c0.8,0,1.4-0.2,1.8-0.6c0.4-0.4,0.6-0.9,0.6-1.6c0-1.3-0.8-2-2.3-2H144.7z"/>
			<path class="st0" d="M156,96.9v-1.1h0c-0.4,0.8-1.1,1.3-2.1,1.3c-1.6,0-2.4-1-2.4-2.9v-3.9h0.8V94c0,0.8,0.1,1.4,0.4,1.8
				c0.3,0.4,0.7,0.6,1.3,0.6c0.3,0,0.5-0.1,0.8-0.2c0.2-0.1,0.4-0.3,0.6-0.5c0.2-0.2,0.3-0.4,0.4-0.7s0.1-0.6,0.1-0.9v-3.8h0.8v6.6
				H156z"/>
			<path class="st0" d="M160.4,95.8v1.1h-0.8v-9.8h0.8v4.4h0c0.2-0.5,0.6-0.8,1-1.1c0.4-0.2,0.9-0.4,1.4-0.4c0.4,0,0.8,0.1,1.1,0.2
				c0.3,0.2,0.6,0.4,0.8,0.7c0.2,0.3,0.4,0.6,0.5,1c0.1,0.4,0.2,0.8,0.2,1.3c0,0.5-0.1,1-0.2,1.5c-0.1,0.4-0.3,0.8-0.6,1.2
				c-0.3,0.3-0.6,0.6-0.9,0.7c-0.4,0.2-0.8,0.3-1.2,0.3C161.6,97,160.9,96.6,160.4,95.8L160.4,95.8z M160.4,94.1
				c0,0.3,0.1,0.6,0.2,0.8c0.1,0.3,0.2,0.5,0.4,0.7s0.4,0.4,0.7,0.5s0.5,0.2,0.8,0.2c0.3,0,0.6-0.1,0.9-0.2c0.3-0.1,0.5-0.3,0.7-0.6
				c0.2-0.3,0.3-0.6,0.4-0.9c0.1-0.4,0.2-0.8,0.2-1.2c0-0.4,0-0.7-0.1-1c-0.1-0.3-0.2-0.6-0.4-0.8c-0.2-0.2-0.4-0.4-0.6-0.5
				c-0.2-0.1-0.5-0.2-0.8-0.2c-0.3,0-0.7,0.1-0.9,0.2s-0.5,0.3-0.7,0.5c-0.2,0.2-0.3,0.5-0.4,0.8c-0.1,0.3-0.2,0.6-0.2,0.9V94.1z"/>
			<path class="st0" d="M167.8,96.9v-9.8h0.8v9.8H167.8z"/>
			<path class="st0" d="M171.9,88.6c-0.2,0-0.3-0.1-0.4-0.2c-0.1-0.1-0.2-0.3-0.2-0.4c0-0.2,0.1-0.3,0.2-0.4
				c0.1-0.1,0.3-0.2,0.4-0.2c0.1,0,0.2,0,0.2,0c0.1,0,0.1,0.1,0.2,0.1c0.1,0.1,0.1,0.1,0.1,0.2c0,0.1,0,0.1,0,0.2c0,0.1,0,0.2,0,0.2
				c0,0.1-0.1,0.1-0.1,0.2c-0.1,0.1-0.1,0.1-0.2,0.1C172,88.6,172,88.6,171.9,88.6z M171.5,96.9v-6.6h0.8v6.6H171.5z"/>
			<path class="st0" d="M179.5,96.6c-0.5,0.3-1.1,0.4-1.8,0.5c-0.5,0-0.9-0.1-1.3-0.2c-0.4-0.2-0.7-0.4-1-0.7
				c-0.3-0.3-0.5-0.7-0.6-1.1c-0.1-0.4-0.2-0.8-0.2-1.3c0-0.5,0.1-1,0.2-1.4c0.2-0.4,0.4-0.8,0.7-1.1c0.3-0.3,0.6-0.6,1.1-0.8
				c0.4-0.2,0.9-0.3,1.4-0.3c0.5,0,1,0.1,1.5,0.3v0.9c-0.5-0.3-1-0.5-1.6-0.5c-0.4,0-0.7,0.1-1,0.2c-0.3,0.1-0.6,0.3-0.8,0.6
				c-0.2,0.3-0.4,0.6-0.5,0.9c-0.1,0.3-0.2,0.7-0.2,1.1c0,0.4,0,0.7,0.1,1c0.1,0.3,0.2,0.6,0.4,0.9c0.2,0.2,0.4,0.4,0.7,0.6
				c0.3,0.1,0.6,0.2,1,0.2c0.6,0,1.2-0.2,1.7-0.6V96.6z"/>
			<path class="st0" d="M182.1,88.6c-0.2,0-0.3-0.1-0.4-0.2c-0.1-0.1-0.2-0.3-0.2-0.4c0-0.2,0.1-0.3,0.2-0.4
				c0.1-0.1,0.3-0.2,0.4-0.2c0.1,0,0.2,0,0.2,0s0.1,0.1,0.2,0.1c0.1,0.1,0.1,0.1,0.1,0.2c0,0.1,0,0.1,0,0.2c0,0.1,0,0.2,0,0.2
				c0,0.1-0.1,0.1-0.1,0.2c-0.1,0.1-0.1,0.1-0.2,0.1C182.3,88.6,182.2,88.6,182.1,88.6z M181.7,96.9v-6.6h0.8v6.6H181.7z"/>
			<path class="st0" d="M190,96.9v-1.2h0c-0.2,0.4-0.5,0.7-0.9,1c-0.4,0.2-0.9,0.3-1.4,0.3c-0.4,0-0.8-0.1-1.1-0.2
				c-0.3-0.2-0.6-0.4-0.9-0.7c-0.2-0.3-0.4-0.6-0.6-1c-0.1-0.4-0.2-0.9-0.2-1.4c0-0.5,0.1-1,0.2-1.5s0.3-0.8,0.6-1.1
				c0.3-0.3,0.6-0.6,1-0.7c0.4-0.2,0.8-0.3,1.2-0.3c0.9,0,1.6,0.4,2,1.1h0v-4.2h0.8v9.8H190z M190,92.9c0-0.3,0-0.6-0.1-0.8
				c-0.1-0.2-0.2-0.5-0.4-0.6c-0.2-0.2-0.4-0.3-0.6-0.4c-0.2-0.1-0.5-0.2-0.8-0.2c-0.3,0-0.6,0.1-0.9,0.2c-0.3,0.1-0.5,0.3-0.7,0.6
				c-0.2,0.2-0.3,0.5-0.5,0.9c-0.1,0.3-0.2,0.7-0.2,1.2c0,0.4,0,0.8,0.1,1.1c0.1,0.3,0.2,0.6,0.4,0.8c0.2,0.2,0.4,0.4,0.7,0.5
				c0.3,0.1,0.5,0.2,0.8,0.2c0.3,0,0.6-0.1,0.9-0.2c0.3-0.1,0.5-0.3,0.7-0.5c0.2-0.2,0.3-0.5,0.4-0.7c0.1-0.3,0.2-0.6,0.2-0.9V92.9z
				"/>
			<path class="st0" d="M197.4,96.9v-1.2h0c-0.2,0.4-0.5,0.7-0.9,1c-0.4,0.2-0.8,0.3-1.3,0.3c-0.3,0-0.6,0-0.9-0.1
				c-0.3-0.1-0.5-0.2-0.6-0.4s-0.3-0.4-0.4-0.6c-0.1-0.2-0.1-0.5-0.1-0.8c0-0.6,0.2-1.1,0.6-1.4c0.4-0.4,0.9-0.6,1.7-0.7l2-0.3
				c0-1.3-0.5-1.9-1.5-1.9c-0.8,0-1.5,0.3-2.1,0.8v-0.9c0.1-0.1,0.3-0.2,0.5-0.3c0.2-0.1,0.4-0.1,0.6-0.2c0.2-0.1,0.4-0.1,0.6-0.1
				c0.2,0,0.4,0,0.6,0c0.7,0,1.3,0.2,1.7,0.6c0.4,0.4,0.6,1,0.6,1.8v4.3H197.4z M195.7,93.7c-0.3,0-0.5,0.1-0.8,0.2
				c-0.2,0.1-0.4,0.2-0.5,0.3c-0.1,0.1-0.2,0.2-0.3,0.4c-0.1,0.2-0.1,0.4-0.1,0.6c0,0.2,0,0.3,0.1,0.5c0.1,0.2,0.2,0.3,0.3,0.4
				c0.1,0.1,0.3,0.2,0.4,0.3c0.2,0.1,0.4,0.1,0.6,0.1c0.3,0,0.6-0.1,0.8-0.2c0.2-0.1,0.5-0.3,0.6-0.5c0.2-0.2,0.3-0.4,0.4-0.7
				c0.1-0.3,0.2-0.6,0.2-0.9v-0.7L195.7,93.7z"/>
			<path class="st0" d="M205.5,96.9v-1.2h0c-0.2,0.4-0.5,0.7-0.9,1c-0.4,0.2-0.9,0.3-1.4,0.3c-0.4,0-0.8-0.1-1.1-0.2
				c-0.3-0.2-0.6-0.4-0.9-0.7c-0.2-0.3-0.4-0.6-0.6-1c-0.1-0.4-0.2-0.9-0.2-1.4c0-0.5,0.1-1,0.2-1.5c0.1-0.4,0.3-0.8,0.6-1.1
				c0.3-0.3,0.6-0.6,1-0.7c0.4-0.2,0.8-0.3,1.2-0.3c0.9,0,1.6,0.4,2,1.1h0v-4.2h0.8v9.8H205.5z M205.5,92.9c0-0.3,0-0.6-0.1-0.8
				c-0.1-0.2-0.2-0.5-0.4-0.6c-0.2-0.2-0.4-0.3-0.6-0.4c-0.2-0.1-0.5-0.2-0.8-0.2c-0.3,0-0.6,0.1-0.9,0.2c-0.3,0.1-0.5,0.3-0.7,0.6
				c-0.2,0.2-0.3,0.5-0.5,0.9c-0.1,0.3-0.2,0.7-0.2,1.2c0,0.4,0,0.8,0.1,1.1c0.1,0.3,0.2,0.6,0.4,0.8c0.2,0.2,0.4,0.4,0.7,0.5
				c0.3,0.1,0.5,0.2,0.8,0.2c0.3,0,0.6-0.1,0.9-0.2c0.3-0.1,0.5-0.3,0.7-0.5c0.2-0.2,0.3-0.5,0.4-0.7c0.1-0.3,0.2-0.6,0.2-0.9V92.9z
				"/>
			<path class="st0" d="M215.3,98.1c-0.3,0.6-0.6,1.1-0.9,1.4c-0.3,0.3-0.7,0.5-1.2,0.5c-0.2,0-0.4,0-0.6-0.1v-0.8
				c0.1,0,0.2,0.1,0.3,0.1c0.1,0,0.2,0,0.3,0c0.3,0,0.5-0.1,0.7-0.3c0.2-0.2,0.4-0.4,0.5-0.8l0.6-1.4l-2.5-6.6h0.9l1.9,5.2
				c0,0.1,0.1,0.1,0.1,0.2c0,0.1,0,0.2,0.1,0.3h0c0-0.1,0-0.1,0.1-0.2c0-0.1,0-0.2,0.1-0.2l2-5.2h0.9L215.3,98.1z"/>
			<path class="st0" d="M232.8,96.9v-6.4c0-0.3,0-0.9,0.1-1.6h0c-0.1,0.2-0.1,0.4-0.2,0.5c0,0.1-0.1,0.3-0.1,0.3l-3.2,7.1H229
				l-3.2-7.1c-0.1-0.2-0.2-0.5-0.3-0.9h0c0,0.2,0,0.4,0,0.7c0,0.3,0,0.5,0,0.8v6.4h-0.8v-9.2h1l3.1,6.9c0.1,0.1,0.1,0.3,0.2,0.4
				c0.1,0.2,0.1,0.3,0.2,0.5h0c0.1-0.2,0.1-0.3,0.2-0.5c0-0.1,0.1-0.3,0.2-0.5l3.2-6.9h1v9.2H232.8z"/>
			<path class="st0" d="M240.4,96.9v-1.2h0c-0.2,0.4-0.5,0.7-0.9,1c-0.4,0.2-0.8,0.3-1.3,0.3c-0.3,0-0.6,0-0.9-0.1
				c-0.3-0.1-0.5-0.2-0.6-0.4s-0.3-0.4-0.4-0.6c-0.1-0.2-0.1-0.5-0.1-0.8c0-0.6,0.2-1.1,0.6-1.4c0.4-0.4,0.9-0.6,1.7-0.7l2-0.3
				c0-1.3-0.5-1.9-1.5-1.9c-0.8,0-1.5,0.3-2.1,0.8v-0.9c0.1-0.1,0.3-0.2,0.5-0.3c0.2-0.1,0.4-0.1,0.6-0.2c0.2-0.1,0.4-0.1,0.6-0.1
				c0.2,0,0.4,0,0.6,0c0.7,0,1.3,0.2,1.7,0.6c0.4,0.4,0.6,1,0.6,1.8v4.3H240.4z M238.7,93.7c-0.3,0-0.5,0.1-0.8,0.2
				c-0.2,0.1-0.4,0.2-0.5,0.3c-0.1,0.1-0.2,0.2-0.3,0.4c-0.1,0.2-0.1,0.4-0.1,0.6c0,0.2,0,0.3,0.1,0.5c0.1,0.2,0.2,0.3,0.3,0.4
				c0.1,0.1,0.3,0.2,0.4,0.3c0.2,0.1,0.4,0.1,0.6,0.1c0.3,0,0.6-0.1,0.8-0.2c0.2-0.1,0.5-0.3,0.6-0.5c0.2-0.2,0.3-0.4,0.4-0.7
				c0.1-0.3,0.2-0.6,0.2-0.9v-0.7L238.7,93.7z"/>
			<path class="st0" d="M247.2,91.1c-0.2-0.1-0.4-0.2-0.7-0.2c-0.2,0-0.4,0-0.6,0.1c-0.2,0.1-0.3,0.2-0.4,0.3
				c-0.1,0.1-0.2,0.3-0.3,0.5c-0.1,0.2-0.2,0.4-0.2,0.6s-0.1,0.4-0.1,0.6c0,0.2,0,0.4,0,0.6v3.2h-0.8v-6.6h0.8v1.4h0
				c0.1-0.2,0.2-0.5,0.3-0.6c0.1-0.2,0.3-0.4,0.4-0.5c0.2-0.1,0.3-0.2,0.5-0.3s0.4-0.1,0.6-0.1c0.1,0,0.3,0,0.4,0
				c0.1,0,0.2,0,0.3,0.1V91.1z"/>
			<path class="st0" d="M252.9,96.9l-3-3.2h0v3.2H249v-9.8h0.8v6.2h0l2.9-3.1h1.1l-3.1,3.2l3.3,3.4H252.9z"/>
			<path class="st0" d="M256,93.7c0,0.4,0.1,0.8,0.2,1.1c0.1,0.3,0.3,0.6,0.4,0.8c0.2,0.2,0.4,0.4,0.7,0.5c0.3,0.1,0.6,0.2,0.9,0.2
				c0.7,0,1.4-0.3,2.1-0.8v0.8c-0.6,0.5-1.4,0.7-2.3,0.7c-0.4,0-0.8-0.1-1.2-0.2c-0.4-0.2-0.7-0.4-0.9-0.7c-0.3-0.3-0.4-0.7-0.6-1.1
				c-0.1-0.4-0.2-0.9-0.2-1.5c0-0.5,0.1-1,0.2-1.4c0.1-0.4,0.4-0.8,0.6-1.1c0.3-0.3,0.6-0.5,0.9-0.7c0.4-0.2,0.8-0.3,1.2-0.3
				c0.4,0,0.8,0.1,1.1,0.2c0.3,0.1,0.6,0.4,0.8,0.6c0.2,0.3,0.4,0.6,0.5,1c0.1,0.4,0.2,0.8,0.2,1.3v0.4H256z M260,93
				c0-0.7-0.2-1.2-0.5-1.6c-0.3-0.4-0.7-0.6-1.3-0.6c-0.3,0-0.5,0-0.8,0.1c-0.2,0.1-0.4,0.2-0.6,0.4s-0.3,0.4-0.4,0.7
				s-0.2,0.6-0.2,0.9H260z"/>
			<path class="st0" d="M265.9,96.8c-0.3,0.1-0.6,0.2-0.9,0.2c-1.1,0-1.6-0.6-1.6-1.8V91h-1.2v-0.7h1.2v-1.7l0.8-0.3v1.9h1.7V91
				h-1.7v4c0,0.4,0.1,0.8,0.2,1c0.1,0.2,0.4,0.3,0.7,0.3c0.3,0,0.5-0.1,0.7-0.2V96.8z"/>
			<path class="st0" d="M268.4,88.6c-0.2,0-0.3-0.1-0.4-0.2c-0.1-0.1-0.2-0.3-0.2-0.4c0-0.2,0.1-0.3,0.2-0.4
				c0.1-0.1,0.3-0.2,0.4-0.2c0.1,0,0.2,0,0.2,0c0.1,0,0.1,0.1,0.2,0.1c0.1,0.1,0.1,0.1,0.1,0.2c0,0.1,0,0.1,0,0.2c0,0.1,0,0.2,0,0.2
				c0,0.1-0.1,0.1-0.1,0.2c-0.1,0.1-0.1,0.1-0.2,0.1C268.5,88.6,268.5,88.6,268.4,88.6z M268,96.9v-6.6h0.8v6.6H268z"/>
			<path class="st0" d="M276,96.9v-3.8c0-1.5-0.5-2.2-1.6-2.2c-0.3,0-0.6,0.1-0.8,0.2c-0.2,0.1-0.5,0.3-0.6,0.5
				c-0.2,0.2-0.3,0.4-0.4,0.7c-0.1,0.3-0.2,0.6-0.2,0.9v3.8h-0.8v-6.6h0.8v1.1h0c0.5-0.9,1.2-1.3,2.2-1.3c0.7,0,1.3,0.2,1.6,0.7
				c0.4,0.5,0.6,1.1,0.6,2v4H276z"/>
			<path class="st0" d="M285,96.4c0,1.2-0.3,2.1-0.8,2.7c-0.6,0.6-1.4,0.9-2.6,0.9c-0.7,0-1.4-0.2-2-0.5v-0.8c0.7,0.4,1.4,0.6,2,0.6
				c1.7,0,2.6-0.9,2.6-2.7v-0.8h0c-0.5,0.9-1.3,1.3-2.3,1.3c-0.4,0-0.8-0.1-1.1-0.2c-0.3-0.2-0.6-0.4-0.9-0.7
				c-0.2-0.3-0.4-0.6-0.6-1c-0.1-0.4-0.2-0.9-0.2-1.4c0-0.5,0.1-1,0.2-1.5c0.1-0.4,0.3-0.8,0.6-1.1c0.3-0.3,0.6-0.6,1-0.7
				c0.4-0.2,0.8-0.3,1.3-0.3c0.9,0,1.6,0.4,2,1.1h0v-1h0.8V96.4z M284.1,92.9c0-0.3,0-0.5-0.1-0.8c-0.1-0.2-0.2-0.5-0.4-0.6
				c-0.2-0.2-0.4-0.3-0.6-0.4c-0.2-0.1-0.5-0.2-0.8-0.2c-0.3,0-0.7,0.1-0.9,0.2c-0.3,0.1-0.5,0.3-0.7,0.6c-0.2,0.2-0.3,0.5-0.5,0.9
				c-0.1,0.4-0.2,0.7-0.2,1.2c0,0.4,0,0.8,0.1,1.1c0.1,0.3,0.2,0.6,0.4,0.8c0.2,0.2,0.4,0.4,0.7,0.5c0.3,0.1,0.5,0.2,0.9,0.2
				c0.3,0,0.6-0.1,0.9-0.2c0.3-0.1,0.5-0.3,0.7-0.5c0.2-0.2,0.3-0.5,0.4-0.7c0.1-0.3,0.2-0.6,0.2-0.9V92.9z"/>
		</g>
	</g>
</g>
</svg>
