<?xml version="1.0" encoding="utf-8"?>
<!-- Generator: Adobe Illustrator 24.2.1, SVG Export Plug-In . SVG Version: 6.00 Build 0)  -->
<svg version="1.1" id="Capa_1" xmlns="http://www.w3.org/2000/svg" xmlns:xlink="http://www.w3.org/1999/xlink" x="0px" y="0px"
	 viewBox="0 0 549 185" style="enable-background:new 0 0 549 185;" xml:space="preserve">
<style type="text/css">
	.st0{fill:#0D2A3B;}
	.st1{fill:#F5B45F;}
</style>
<g>
	<rect x="-0.5" y="-0.4" class="st0" width="549" height="185.6"/>
	<g>
		<g>
			
				<rect x="243" y="90.6" transform="matrix(0.7071 -0.7071 0.7071 0.7071 6.0212 201.0813)" class="st1" width="5.4" height="5.4"/>
			<g>
				<path class="st1" d="M261.4,79.2l-15.9-31.7l-30.1,60.1h11.1l5.1-10.1l5-9.9l8.9-17.7l9.4,18.8L261.4,79.2
					C261.4,79.2,261.4,79.2,261.4,79.2z"/>
				<path class="st1" d="M267.2,90.9l-6.4,9.5l3.5,7.1h11.2l-2.7-5.4C271.3,99.1,268.7,93.9,267.2,90.9z"/>
				<polygon class="st1" points="275.7,57.8 270.5,47.4 259.4,47.4 269.3,67.3 				"/>
				<path class="st1" d="M305.8,52.4L305.8,52.4c-2.5,5-5,10-7.5,15h0l-8.8,17.7l-7.8-15.6l-6.4,9.6l14.2,28.4l15.9-31.7
					c0,0,0,0,0,0l4.2-8.4h0c2.4-4.9,4.8-9.7,7.3-14.6l2.7-5.4h-11.2L305.8,52.4z"/>
				<polygon class="st1" points="326.3,80.9 326.3,107.8 326.3,108 336.3,108 336.3,97.7 336.3,80.9 336.3,57.6 326.3,47.7 				"/>
				<polygon class="st1" points="373.8,57.5 383.8,47.4 338.1,47.4 348.2,57.5 356,57.5 356,57.5 356,57.5 356,107.5 366.1,107.5 
					366.1,59.7 366.1,59.7 366.1,57.5 				"/>
				<polygon class="st1" points="429.2,47.4 418.4,63.8 401,47.4 388.9,47.5 412.8,72.3 389.1,108 401.1,108 441,47.4 				"/>
				<polygon class="st1" points="134.6,85.9 149.7,85.9 159.7,75.9 134.6,75.9 				"/>
				<path class="st1" d="M145.5,95.8c-2.6,1.1-5.3,1.7-8.3,1.7c-5.5,0-10.3-1.9-14.2-5.8c-3.9-3.9-5.8-8.7-5.8-14.2
					c0-5.5,1.9-10.2,5.8-14.1c4-4,8.7-5.9,14.2-5.9c5.6,0,10.2,2,14.1,5.9l7.2-7.1c-2.8-2.8-6-5-9.6-6.5c-3.7-1.6-7.6-2.3-11.7-2.3
					c-8.3,0-15.4,2.9-21.2,8.9c-5.9,5.9-8.9,12.9-8.9,21.2c0,8.3,3,15.3,8.9,21.2c5.9,5.9,12.8,8.9,21.2,8.9c2.6,0,5.1-0.3,7.5-1
					c2.5-0.6,4.7-1.5,6.8-2.7c2.2-1.2,4.1-2.6,5.9-4.3c1.9-1.7,3.5-3.5,4.8-5.6l-10-3.3C150.3,93,148,94.6,145.5,95.8z"/>
				<path class="st1" d="M205,78.9c2.4-3.4,3.5-7.1,3.5-11.3c0-5.5-2-10.1-5.9-14.1c-3.9-3.9-8.6-5.9-14.1-5.9h-26.4l5.2,8.9
					l1.1,1.1h20.1c2.7,0,5,1,7,2.9c2,2,3,4.3,3,7c0,2.8-1,5.2-3,7.1c-2,2-4.3,2.9-7,2.9l-8.9-0.1l17.4,30.1h11.5l-12.3-21.6
					C199.8,84.6,202.7,82.2,205,78.9z"/>
			</g>
		</g>
	</g>
</g>
</svg>
